<svg id="Layer_2" data-name="Layer 2" xmlns="http://www.w3.org/2000/svg" viewBox="0 0 200.24 113.95"><defs><style>.cls-1{fill:#fabd0f;}.cls-2{fill:#4aa3db;}.cls-3{fill:#5bbcb3;}.cls-4{fill:#1b2846;}.cls-5{fill:#202f59;}</style></defs><polygon class="cls-1" points="25.25 81.49 60.26 100.09 60.75 34.74 25.13 14.01 25.25 81.49"/><path class="cls-2" d="M46,41c5.45-3,12.22-6.83,12.78-7.31Z" transform="translate(-13.91)"/><path class="cls-2" d="M58.79,33.71v0Z" transform="translate(-13.91)"/><polygon class="cls-2" points="25.18 81.46 25.18 44.98 8.35 54.59 8.35 113.95 44.81 93.36 44.81 92.25 25.18 81.46"/><path class="cls-3" d="M58.79,33.71c-1,.81-19.7,11.14-19.7,11.14V81.46L58.74,93S58.79,33.73,58.79,33.71Z" transform="translate(-13.91)"/><path class="cls-4" d="M51.49,59a2.19,2.19,0,1,1,2.18-2.19A2.19,2.19,0,0,1,51.49,59Z" transform="translate(-13.91)"/><path class="cls-4" d="M30.5,0V40.13L13.91,49.77v55.92l3,1.71V51.48L30.5,43.56V86l36.68,20.93V97.86l16.07,9.34V30.14Zm3,5.12,28.88,16.5L33.47,38.4ZM64.21,92.7,42,79.8V46.61l13.75-7.8V70.32L45,76.59l3,1.71L58.75,72V33.71L39.06,44.87V81.51L64.21,96.13v5.67L33.47,84.27V41.84L64.21,24ZM80.28,102l-13.1-7.61V24.38l13.1,7.49Z" transform="translate(-13.91)"/><path class="cls-5" d="M97.29,81.29V61.64l4.32,2.47V81.29Z" transform="translate(-13.91)"/><path class="cls-5" d="M104.42,81.29V67.06h3.68V69h.06a5,5,0,0,1,4.35-2.32A4.11,4.11,0,0,1,116.66,69a4.91,4.91,0,0,1,4.3-2.37c3.46,0,5.2,1.7,5.2,5.09v9.53h-3.91V73.22a6,6,0,0,0-.36-2.45,2.09,2.09,0,0,0-2-1q-2.61,0-2.61,3.6v7.93h-3.91v-8a7.35,7.35,0,0,0-.25-2.4A2,2,0,0,0,111,69.76a2.36,2.36,0,0,0-1.6.6A3.24,3.24,0,0,0,108.32,73v8.26Z" transform="translate(-13.91)"/><path class="cls-5" d="M128.55,86.3V67.06h3.72v1.82h0a4.61,4.61,0,0,1,4.24-2.21,5.76,5.76,0,0,1,4.9,2.32A8.59,8.59,0,0,1,143,74.32a8.16,8.16,0,0,1-1.57,5.1,5.56,5.56,0,0,1-4.68,2.25,4.8,4.8,0,0,1-4.27-2.14h0V86.3Zm7.18-7.57q3.39,0,3.39-4.52a5.76,5.76,0,0,0-.77-3.13,2.92,2.92,0,0,0-2.64-1.46,2.87,2.87,0,0,0-2.65,1.43,6,6,0,0,0-.74,3.16,5.62,5.62,0,0,0,.77,3.11A2.91,2.91,0,0,0,135.73,78.73Z" transform="translate(-13.91)"/><path class="cls-5" d="M148.42,71.43h-3.91a4.4,4.4,0,0,1,2.23-3.74,8.61,8.61,0,0,1,4.46-1c4.16,0,6.25,1.35,6.25,4v7.4a6.8,6.8,0,0,0,.49,3.17h-4a5.36,5.36,0,0,1-.28-1.38,6.3,6.3,0,0,1-4.78,1.76,5.37,5.37,0,0,1-3.45-1,3.92,3.92,0,0,1-1.4-3.22,3.72,3.72,0,0,1,1.52-3.25,8.12,8.12,0,0,1,3.33-1.07c2.1-.3,3.18-.45,3.21-.47q1.41-.36,1.41-1.41a1.67,1.67,0,0,0-.77-1.59,3.58,3.58,0,0,0-1.76-.33C149.41,69.29,148.55,70,148.42,71.43Zm5.12,4.35V74.32a4.24,4.24,0,0,1-2,.64,11.46,11.46,0,0,0-2.37.52A1.8,1.8,0,0,0,148,77.24c0,1.21.8,1.82,2.39,1.82Q153.53,79.06,153.54,75.78Z" transform="translate(-13.91)"/><path class="cls-5" d="M173.3,72.07h-3.83a2.61,2.61,0,0,0-2.89-2.45A2.86,2.86,0,0,0,164,71.13a6.22,6.22,0,0,0-.72,3.11,5.79,5.79,0,0,0,.72,3,2.75,2.75,0,0,0,2.53,1.49c1.8,0,2.83-1,3.11-2.89h3.77a6.41,6.41,0,0,1-2.19,4.32,7.05,7.05,0,0,1-4.66,1.51,7,7,0,0,1-5.19-2,7.2,7.2,0,0,1-2-5.26,7.87,7.87,0,0,1,1.9-5.5,6.86,6.86,0,0,1,5.37-2.21A7.46,7.46,0,0,1,171.12,68,5.26,5.26,0,0,1,173.3,72.07Z" transform="translate(-13.91)"/><path class="cls-5" d="M179.86,64.3,176,62.06v5.29h-2.35v2.57H176v8.24a3.53,3.53,0,0,0,.36,1.71,2.59,2.59,0,0,0,1,1,4.15,4.15,0,0,0,1.43.47,11.47,11.47,0,0,0,1.71.12l1.17,0a8.8,8.8,0,0,0,1.1-.1v-3a5,5,0,0,1-.58.09l-.63,0a2,2,0,0,1-1.31-.32,1.87,1.87,0,0,1-.33-1.3V69.92h2.85V67.35h-2.85Z" transform="translate(-13.91)"/><path class="cls-4" d="M93.09,41.36h13.06v.49h-6.3V58.63h-.49V41.85H93.09Z" transform="translate(-13.91)"/><path class="cls-4" d="M107.57,41.36v7.91h.05a4.35,4.35,0,0,1,.55-1.33,4,4,0,0,1,1-1.06,4.26,4.26,0,0,1,1.33-.72,5.31,5.31,0,0,1,1.69-.25,5.39,5.39,0,0,1,1.8.29,4,4,0,0,1,1.43.86,4,4,0,0,1,.93,1.4,5.22,5.22,0,0,1,.33,1.92v8.25h-.49V50.46a4.79,4.79,0,0,0-.32-1.85,3.38,3.38,0,0,0-.87-1.26,3.53,3.53,0,0,0-1.28-.73,5.1,5.1,0,0,0-1.53-.23,4.31,4.31,0,0,0-2,.43A4.2,4.2,0,0,0,108.74,48a4.79,4.79,0,0,0-.87,1.66,6.5,6.5,0,0,0-.3,2v7h-.49V41.36Z" transform="translate(-13.91)"/><path class="cls-4" d="M119.39,54.85a5.56,5.56,0,0,0,.87,1.87A4.17,4.17,0,0,0,121.78,58a5.83,5.83,0,0,0,5.58-.57A4.69,4.69,0,0,0,129,54.33h.48a4.88,4.88,0,0,1-1.73,3.37,5.55,5.55,0,0,1-3.63,1.2,5.81,5.81,0,0,1-2.51-.46,4.41,4.41,0,0,1-1.7-1.37,5.8,5.8,0,0,1-1-2.08,9.7,9.7,0,0,1-.32-2.58,7.59,7.59,0,0,1,.46-2.75,6.4,6.4,0,0,1,1.23-2,5.14,5.14,0,0,1,3.82-1.7,5.35,5.35,0,0,1,2.54.56,4.87,4.87,0,0,1,1.73,1.47,6,6,0,0,1,1,2.1,8.44,8.44,0,0,1,.26,2.47H119.09A9.6,9.6,0,0,0,119.39,54.85Zm9.42-5a5.33,5.33,0,0,0-.94-1.8,4.58,4.58,0,0,0-1.56-1.22,4.89,4.89,0,0,0-2.15-.45,4.79,4.79,0,0,0-1.93.39,4.63,4.63,0,0,0-1.56,1.12,5.79,5.79,0,0,0-1.09,1.78,7.43,7.43,0,0,0-.49,2.35h10A7.08,7.08,0,0,0,128.81,49.86Z" transform="translate(-13.91)"/><path class="cls-5" d="M108.62,89.89a6.15,6.15,0,0,0-3.55-1,6.41,6.41,0,0,0-3,.64A5.94,5.94,0,0,0,100,91.26a7.51,7.51,0,0,0-1.19,2.5,11.24,11.24,0,0,0-.38,2.92,12.58,12.58,0,0,0,.38,3.12,7.37,7.37,0,0,0,1.19,2.56,5.87,5.87,0,0,0,2.07,1.75,6.52,6.52,0,0,0,3,.65,5.88,5.88,0,0,0,2.29-.42,5.27,5.27,0,0,0,1.72-1.16,5.61,5.61,0,0,0,1.14-1.77,7.33,7.33,0,0,0,.49-2.22h2.6a8.64,8.64,0,0,1-2.55,5.67,8.25,8.25,0,0,1-5.91,2,9.6,9.6,0,0,1-4-.77A7.78,7.78,0,0,1,98.09,104a8.93,8.93,0,0,1-1.68-3.19,13.21,13.21,0,0,1-.56-3.94,12.73,12.73,0,0,1,.6-4,9.37,9.37,0,0,1,1.77-3.23,8.13,8.13,0,0,1,2.9-2.18,9.46,9.46,0,0,1,4-.8,10.16,10.16,0,0,1,2.9.41,7.92,7.92,0,0,1,2.44,1.19,6.71,6.71,0,0,1,1.78,2,7.25,7.25,0,0,1,.93,2.71h-2.6A4.79,4.79,0,0,0,108.62,89.89Z" transform="translate(-13.91)"/><path class="cls-5" d="M115.86,96.61a6.58,6.58,0,0,1,1.31-2.33,6.36,6.36,0,0,1,2.17-1.55,8,8,0,0,1,5.92,0,6.28,6.28,0,0,1,2.15,1.55,6.6,6.6,0,0,1,1.32,2.33,9.24,9.24,0,0,1,.43,2.88,9.12,9.12,0,0,1-.43,2.86,6.6,6.6,0,0,1-1.32,2.31,6,6,0,0,1-2.15,1.54,8.1,8.1,0,0,1-5.92,0,6.08,6.08,0,0,1-2.17-1.54,6.58,6.58,0,0,1-1.31-2.31,9.12,9.12,0,0,1-.44-2.86A9.24,9.24,0,0,1,115.86,96.61Zm2.37,5.13a4.57,4.57,0,0,0,.94,1.65,4.18,4.18,0,0,0,1.41,1,4.35,4.35,0,0,0,3.42,0,4.18,4.18,0,0,0,1.41-1,4.74,4.74,0,0,0,1-1.65,7.65,7.65,0,0,0,0-4.51,4.88,4.88,0,0,0-1-1.66,4.08,4.08,0,0,0-1.41-1,4.35,4.35,0,0,0-3.42,0,4.08,4.08,0,0,0-1.41,1,4.71,4.71,0,0,0-.94,1.66,7.44,7.44,0,0,0,0,4.51Z" transform="translate(-13.91)"/><path class="cls-5" d="M134.37,87.16v19.3H132V87.16Z" transform="translate(-13.91)"/><path class="cls-5" d="M140.44,87.16v19.3h-2.32V87.16Z" transform="translate(-13.91)"/><path class="cls-5" d="M154.08,105.57a6.53,6.53,0,0,1-4,1.19,7.35,7.35,0,0,1-2.94-.54,5.77,5.77,0,0,1-2.1-1.52,6.44,6.44,0,0,1-1.27-2.32,10.91,10.91,0,0,1-.48-2.95,8.32,8.32,0,0,1,.49-2.92,7,7,0,0,1,1.38-2.29,6.36,6.36,0,0,1,2.11-1.52,6.5,6.5,0,0,1,2.67-.54,5.91,5.91,0,0,1,3.14.77,6.21,6.21,0,0,1,2,2,7.55,7.55,0,0,1,1,2.6,10.87,10.87,0,0,1,.24,2.67h-10.6a5.61,5.61,0,0,0,.22,1.75,3.89,3.89,0,0,0,.8,1.45,3.81,3.81,0,0,0,1.39,1,4.92,4.92,0,0,0,2,.38,4.05,4.05,0,0,0,2.42-.68,3.25,3.25,0,0,0,1.25-2h2.3A5.64,5.64,0,0,1,154.08,105.57Zm-.57-9a4,4,0,0,0-.84-1.26,4.21,4.21,0,0,0-1.26-.84,4.36,4.36,0,0,0-3.23,0,3.79,3.79,0,0,0-1.25.85,4,4,0,0,0-.82,1.26,4.89,4.89,0,0,0-.36,1.53h8.13A4.46,4.46,0,0,0,153.51,96.6Z" transform="translate(-13.91)"/><path class="cls-5" d="M167.22,94.92a3.56,3.56,0,0,0-2.36-.73,4.36,4.36,0,0,0-2.11.46,3.78,3.78,0,0,0-1.35,1.22,5,5,0,0,0-.73,1.74,9.81,9.81,0,0,0-.22,2,7.42,7.42,0,0,0,.24,1.89,5,5,0,0,0,.72,1.64,3.65,3.65,0,0,0,1.29,1.14,3.88,3.88,0,0,0,1.89.44,3.79,3.79,0,0,0,2.69-.9,4,4,0,0,0,1.19-2.51h2.39a6.43,6.43,0,0,1-2,4,6.19,6.19,0,0,1-4.28,1.41,7.53,7.53,0,0,1-2.87-.52,5.56,5.56,0,0,1-2.08-1.46,6.5,6.5,0,0,1-1.26-2.25,9.45,9.45,0,0,1-.42-2.88,10.22,10.22,0,0,1,.41-2.93,6.61,6.61,0,0,1,1.25-2.38,5.76,5.76,0,0,1,2.09-1.6,7.06,7.06,0,0,1,2.93-.58,8.63,8.63,0,0,1,2.26.29,5.51,5.51,0,0,1,1.86.88,4.77,4.77,0,0,1,1.33,1.49,5.6,5.6,0,0,1,.65,2.15h-2.4A3.56,3.56,0,0,0,167.22,94.92Z" transform="translate(-13.91)"/><path class="cls-5" d="M179.51,92.49v2h-2.82v8.68a2.3,2.3,0,0,0,.07.65.64.64,0,0,0,.26.38,1.14,1.14,0,0,0,.53.17,7.21,7.21,0,0,0,.89,0h1.07v2h-1.78a8.64,8.64,0,0,1-1.55-.12,2.26,2.26,0,0,1-1-.45,1.91,1.91,0,0,1-.59-.92,5.14,5.14,0,0,1-.19-1.56v-8.9H172v-2h2.41V88.3h2.33v4.19Z" transform="translate(-13.91)"/><path class="cls-5" d="M182.22,90V87.16h2.32V90Zm2.32,2.52v14h-2.32v-14Z" transform="translate(-13.91)"/><path class="cls-5" d="M192.05,106.46l-5.26-14h2.6l4,11.65h0l3.86-11.65h2.44l-5.17,14Z" transform="translate(-13.91)"/><path class="cls-5" d="M211.87,105.57a6.53,6.53,0,0,1-4,1.19,7.35,7.35,0,0,1-2.94-.54,5.85,5.85,0,0,1-2.1-1.52,6.44,6.44,0,0,1-1.27-2.32,11.31,11.31,0,0,1-.48-2.95,8.32,8.32,0,0,1,.49-2.92A7,7,0,0,1,203,94.22a6.36,6.36,0,0,1,2.11-1.52,6.5,6.5,0,0,1,2.67-.54,5.91,5.91,0,0,1,3.14.77,6.35,6.35,0,0,1,2,2,8,8,0,0,1,1,2.6,11.35,11.35,0,0,1,.23,2.67h-10.6a5.92,5.92,0,0,0,.22,1.75,3.89,3.89,0,0,0,.8,1.45,3.81,3.81,0,0,0,1.39,1,4.92,4.92,0,0,0,2,.38,4.05,4.05,0,0,0,2.42-.68,3.25,3.25,0,0,0,1.25-2h2.3A5.64,5.64,0,0,1,211.87,105.57Zm-.57-9a4,4,0,0,0-.84-1.26,4.21,4.21,0,0,0-1.26-.84,4.36,4.36,0,0,0-3.23,0,3.79,3.79,0,0,0-1.25.85,4,4,0,0,0-.82,1.26,4.89,4.89,0,0,0-.36,1.53h8.13A4.46,4.46,0,0,0,211.3,96.6Z" transform="translate(-13.91)"/></svg>