<?xml version="1.0" standalone="no"?>
<!DOCTYPE svg PUBLIC "-//W3C//DTD SVG 20010904//EN"
 "http://www.w3.org/TR/2001/REC-SVG-20010904/DTD/svg10.dtd">
<svg version="1.0" xmlns="http://www.w3.org/2000/svg"
 width="1794.000000pt" height="1794.000000pt" viewBox="0 0 1794.000000 1794.000000"
 preserveAspectRatio="xMidYMid meet">
<metadata>
Created by potrace 1.14, written by Peter Selinger 2001-2017
</metadata>
<g transform="translate(0.000000,1794.000000) scale(0.100000,-0.100000)"
fill="#000000" stroke="none">
<path d="M8575 17914 c-446 -27 -592 -41 -895 -84 -1349 -192 -2593 -667
-3725 -1421 -1768 -1177 -3063 -2939 -3650 -4964 -132 -457 -212 -856 -286
-1429 -20 -162 -21 -170 -4 -183 10 -7 337 -205 727 -439 390 -235 705 -430
701 -434 -4 -4 -327 -200 -718 -435 -390 -235 -714 -430 -718 -435 -15 -14 71
-620 129 -905 222 -1086 649 -2129 1258 -3070 497 -770 1136 -1484 1851 -2070
833 -684 1822 -1230 2837 -1569 670 -223 1352 -366 2058 -431 539 -49 1184
-45 1740 10 2509 251 4805 1557 6322 3595 761 1022 1295 2201 1562 3450 43
203 77 407 121 735 27 199 32 252 22 260 -7 6 -247 188 -532 405 -286 217
-541 410 -566 430 l-46 36 579 439 c568 432 578 440 573 470 -3 16 -17 118
-30 225 -97 746 -249 1355 -507 2040 -137 363 -394 906 -587 1242 -1105 1920
-2840 3351 -4921 4059 -730 249 -1464 397 -2280 459 -134 11 -900 21 -1015 14z
m-2174 -4434 c255 -385 468 -698 473 -697 4 2 191 316 415 700 l406 696 638 1
639 0 -19 -32 c-11 -18 -342 -545 -737 -1172 l-718 -1139 766 -1148 c421 -632
766 -1151 766 -1154 0 -3 -294 -5 -652 -5 l-653 0 -475 716 c-371 560 -476
712 -485 701 -5 -8 -194 -330 -420 -716 l-410 -701 -638 0 c-508 0 -637 3
-631 13 4 6 317 503 694 1102 378 600 710 1127 738 1171 l50 81 -742 1114
c-408 613 -751 1126 -760 1142 l-18 27 655 0 655 0 463 -700z m5282 676 c432
-61 768 -183 1077 -389 438 -293 748 -744 875 -1271 119 -491 93 -1057 -69
-1506 -129 -357 -368 -698 -645 -922 -276 -223 -630 -389 -991 -466 -293 -63
-486 -72 -1547 -72 l-843 0 0 2326 0 2325 1013 -4 c882 -3 1027 -6 1130 -21z
m2367 -256 l0 -60 -85 0 -85 0 0 -255 0 -255 -75 0 -75 0 0 255 0 255 -80 0
-80 0 0 60 0 60 240 0 240 0 0 -60z m344 -160 c49 -121 90 -220 91 -220 2 0
43 99 91 220 l88 220 88 0 88 0 0 -315 0 -315 -75 0 -75 0 -2 193 -3 192 -70
-190 -71 -190 -59 -3 -60 -3 -72 193 -72 193 0 -192 -1 -193 -75 0 -75 0 0
315 0 315 88 0 87 0 89 -220z m-8554 -5055 c723 -124 1150 -538 1215 -1177 l7
-68 -561 0 -561 0 -5 28 c-20 93 -30 123 -58 175 -111 209 -431 300 -678 193
-58 -24 -144 -109 -168 -165 -47 -111 -46 -251 2 -348 75 -147 235 -232 807
-428 495 -170 744 -291 915 -446 260 -236 357 -456 357 -809 0 -121 -5 -178
-22 -260 -102 -491 -482 -861 -1028 -1000 -401 -101 -946 -67 -1327 85 -375
149 -653 419 -775 754 -33 89 -65 239 -75 349 l-6 72 555 0 554 0 7 -42 c34
-219 173 -379 375 -429 66 -16 255 -16 325 0 79 19 190 78 234 126 81 88 114
203 93 326 -20 118 -71 192 -186 274 -122 86 -252 140 -606 250 -665 209 -931
357 -1145 640 -202 266 -250 738 -113 1110 153 417 593 723 1143 794 44 6 94
13 110 15 76 11 524 -3 615 -19z m4410 -450 l0 -415 -795 0 -795 0 2 -437 3
-438 698 -3 697 -2 0 -395 0 -395 -697 -2 -698 -3 0 -475 0 -475 793 -3 792
-2 0 -415 0 -415 -1315 0 -1315 0 0 2145 0 2145 1315 0 1315 0 0 -415z m3786
-1725 c426 -1174 774 -2138 774 -2142 0 -5 -246 -8 -547 -8 l-548 0 -129 380
-128 380 -807 0 -806 0 -125 -371 c-68 -203 -127 -374 -130 -380 -4 -6 -212
-8 -546 -7 l-540 3 776 2143 775 2142 604 -2 604 -3 773 -2135z"/>
<path d="M10660 11864 l0 -1356 393 4 c435 5 493 11 687 74 315 103 544 297
680 578 111 228 156 489 138 817 -32 619 -355 1041 -905 1184 -166 43 -307 55
-665 55 l-328 0 0 -1356z"/>
<path d="M12645 7489 c-13 -38 -525 -1562 -525 -1565 0 -2 241 -4 536 -4 425
0 535 3 531 13 -2 6 -122 361 -266 787 -144 426 -264 776 -266 779 -3 2 -7 -2
-10 -10z"/>
</g>
</svg>
