<?xml version="1.0" standalone="no"?>
<!DOCTYPE svg PUBLIC "-//W3C//DTD SVG 20010904//EN"
 "http://www.w3.org/TR/2001/REC-SVG-20010904/DTD/svg10.dtd">
<svg version="1.0" xmlns="http://www.w3.org/2000/svg"
 width="280.000000pt" height="280.000000pt" viewBox="0 0 280.000000 280.000000"
 preserveAspectRatio="xMidYMid meet">
<metadata>
Created by potrace 1.14, written by Peter Selinger 2001-2017
</metadata>
<g transform="translate(0.000000,280.000000) scale(0.100000,-0.100000)"
fill="#000000" stroke="none">
<path d="M1179 2774 c-179 -32 -327 -93 -493 -203 -315 -209 -519 -553 -566
-955 -9 -72 -10 -110 -3 -117 6 -6 61 -25 123 -44 111 -33 128 -40 119 -50 -3
-2 -57 -26 -120 -53 l-114 -48 -1 -84 c-1 -143 52 -353 128 -505 97 -192 252
-369 427 -486 128 -87 190 -118 317 -162 152 -53 217 -62 419 -61 161 0 190 3
280 27 252 66 449 180 635 366 47 47 108 120 135 161 109 167 195 392 212 553
3 32 10 60 14 63 5 3 9 25 9 49 0 51 1 51 -147 105 -51 19 -93 37 -93 40 0 3
46 23 103 43 56 21 109 41 117 46 23 12 23 47 0 203 -51 344 -195 615 -433
815 -195 165 -387 257 -621 298 -109 19 -341 19 -447 -1z m377 -5 c195 -21
412 -101 571 -211 109 -74 268 -236 341 -347 129 -197 180 -359 219 -696 l5
-41 -127 -44 c-94 -33 -125 -48 -123 -59 2 -10 48 -32 126 -60 l122 -43 0 -39
c0 -22 -4 -39 -8 -39 -4 0 -13 -40 -20 -88 -66 -490 -420 -890 -917 -1037 -49
-15 -108 -32 -130 -38 -22 -6 -116 -10 -210 -11 -145 0 -183 3 -255 22 -161
43 -278 88 -381 148 -97 56 -241 167 -297 229 -62 68 -161 214 -208 307 -71
142 -124 352 -124 497 l0 78 123 50 c71 30 122 56 122 64 0 9 -42 27 -115 49
-63 20 -122 38 -130 41 -12 5 -12 23 3 140 9 74 28 175 42 224 119 410 452
744 858 862 168 48 336 62 513 42z"/>
<path d="M1248 2660 c-326 -52 -639 -249 -804 -508 -111 -172 -193 -413 -194
-564 l0 -56 83 -30 c45 -16 99 -35 119 -43 33 -11 38 -17 38 -44 0 -29 -5 -33
-121 -90 l-122 -59 6 -86 c8 -109 56 -280 112 -396 54 -113 170 -269 256 -347
73 -67 195 -150 285 -195 244 -122 564 -146 839 -61 176 54 400 195 499 316
l48 58 -83 5 -84 5 -26 54 c-14 29 -34 60 -44 67 -20 15 -194 19 -228 5 -10
-4 -33 -34 -50 -66 l-32 -60 -302 -3 c-341 -3 -306 -12 -319 88 -3 30 -11 66
-16 79 -9 24 -10 24 -37 -25 -54 -94 -115 -136 -219 -153 -84 -13 -172 1 -251
41 -86 44 -92 56 -61 114 14 25 33 54 42 64 18 19 19 18 80 -10 95 -45 178
-38 178 15 0 33 -24 55 -101 96 -146 77 -200 185 -149 297 53 117 194 169 341
126 74 -22 109 -44 109 -69 0 -11 -13 -42 -28 -70 -30 -54 -30 -55 -118 -34
-60 15 -100 6 -109 -22 -9 -28 13 -50 88 -87 85 -42 139 -83 186 -141 32 -42
40 -47 46 -33 4 9 11 111 16 225 5 134 12 214 20 223 9 11 50 14 199 14 104 0
195 -3 204 -6 12 -5 16 -21 16 -74 0 -38 -5 -72 -11 -75 -6 -4 -47 -9 -92 -12
-87 -6 -127 -22 -127 -51 0 -41 23 -54 114 -63 48 -5 92 -11 97 -15 5 -3 9
-38 9 -78 l0 -73 -31 -7 c-17 -3 -51 -6 -74 -6 -84 0 -116 -23 -107 -77 5 -25
17 -28 143 -38 70 -6 77 -9 89 -33 l12 -27 26 50 c14 28 65 148 114 268 94
232 124 298 142 309 18 13 131 9 149 -4 16 -12 100 -211 232 -550 32 -82 63
-148 69 -148 37 1 157 224 200 373 30 103 53 264 40 277 -5 5 -56 29 -114 53
-102 42 -105 44 -105 76 0 31 2 33 128 85 71 30 131 57 135 60 3 4 -4 9 -16
13 -18 4 -22 13 -22 42 0 66 -30 224 -60 313 -126 376 -427 650 -830 755 -106
27 -320 39 -422 23z m-309 -461 c20 -23 50 -57 67 -76 38 -45 57 -40 109 29
66 87 68 88 139 88 71 0 126 -9 126 -20 0 -4 -45 -76 -100 -160 -55 -84 -100
-158 -100 -166 0 -12 49 -88 188 -288 34 -49 59 -93 56 -97 -3 -5 -52 -9 -109
-9 l-103 0 -45 63 c-58 80 -102 127 -119 127 -17 0 -59 -44 -122 -127 l-47
-63 -101 0 c-91 0 -100 2 -96 18 3 9 55 93 116 185 62 93 112 177 112 188 0
27 -17 58 -105 193 -41 63 -75 122 -75 130 0 17 27 22 114 25 58 1 60 0 95
-40z m966 11 c83 -32 173 -123 204 -205 31 -83 31 -197 0 -280 -27 -72 -109
-159 -182 -193 -63 -29 -176 -43 -287 -35 l-89 6 -6 62 c-4 34 -5 196 -4 359
3 250 6 298 19 307 9 6 69 8 150 6 111 -3 146 -8 195 -27z"/>
<path d="M1743 2038 c-11 -18 -16 -265 -6 -313 8 -37 12 -40 44 -43 47 -4 98
31 127 88 33 65 28 162 -11 214 -16 20 -41 43 -57 51 -35 18 -86 20 -97 3z"/>
</g>
</svg>
