<?xml version="1.0" encoding="UTF-8"?>
<svg width="52px" height="52px" viewBox="0 0 52 52" version="1.1" xmlns="http://www.w3.org/2000/svg" xmlns:xlink="http://www.w3.org/1999/xlink">
    <title>Group</title>
    <g id="Page-1" stroke="none" stroke-width="1" fill="none" fill-rule="evenodd">
        <g id="Group">
            <rect id="Empty-Copy" fill-opacity="0.226664937" fill="#000000" x="0" y="0" width="52" height="52" rx="26"></rect>
            <g id="icons8-plus-math" transform="translate(14.000000, 14.000000)" fill="#FFFFFF" fill-rule="nonzero">
                <path d="M12,0 C10.8474783,0 9.91304348,0.934434783 9.91304348,2.08695652 L9.91304348,9.91304348 L2.08695652,9.91304348 C0.934434783,9.91304348 0,10.8474783 0,12 C0,13.1525217 0.934434783,14.0869565 2.08695652,14.0869565 L9.91304348,14.0869565 L9.91304348,21.9130435 C9.91304348,23.0655652 10.8474783,24 12,24 C13.1525217,24 14.0869565,23.0655652 14.0869565,21.9130435 L14.0869565,14.0869565 L21.9130435,14.0869565 C23.0655652,14.0869565 24,13.1525217 24,12 C24,10.8474783 23.0655652,9.91304348 21.9130435,9.91304348 L14.0869565,9.91304348 L14.0869565,2.08695652 C14.0869565,0.934434783 13.1525217,0 12,0 Z" id="Path"></path>
            </g>
        </g>
    </g>
</svg>