<?xml version="1.0" encoding="UTF-8"?>
<svg width="90px" height="90px" viewBox="0 0 90 90" version="1.1" xmlns="http://www.w3.org/2000/svg" xmlns:xlink="http://www.w3.org/1999/xlink">
    <title>Group Copy</title>
    <g id="Page-1" stroke="none" stroke-width="1" fill="none" fill-rule="evenodd">
        <g id="Group-Copy" fill="#000000">
            <rect id="Empty-Copy-2" fill-opacity="0.226664937" x="0" y="0" width="90" height="90" rx="45"></rect>
            <g id="icons8-picture" opacity="0.300000012" transform="translate(33.000000, 36.000000)" fill-rule="nonzero">
                <path d="M20.3076923,0 C22.3467692,0 24,1.62042857 24,3.61904762 L24,15.3809524 C24,17.3795714 22.3467692,19 20.3076923,19 L3.69230769,19 C1.65323077,19 0,17.3795714 0,15.3809524 L0,3.61904762 C0,1.62042857 1.65323077,0 3.69230769,0 L20.3076923,0 Z M7.59230769,4.97619048 C6.62353846,4.97619048 5.83846154,5.74569048 5.83846154,6.6952381 C5.83846154,7.64478571 6.62353846,8.41428571 7.59230769,8.41428571 C8.56107692,8.41428571 9.34615385,7.64478571 9.34615385,6.6952381 C9.34615385,5.74569048 8.56107692,4.97619048 7.59230769,4.97619048 Z M20.3076923,14.9285714 L20.3076923,13.5216667 L16.2447692,9.94061905 C15.5769231,9.35161905 14.5629231,9.35297619 13.896,9.94333333 L10.6287692,12.8367619 L8.75953846,11.2692619 C8.10138462,10.7173571 7.13076923,10.7191667 6.47492308,11.2733333 L3.69230769,13.6234524 L3.69230769,14.9285714 C3.69230769,15.1782857 3.89907692,15.3809524 4.15384615,15.3809524 L19.8461538,15.3809524 C20.1009231,15.3809524 20.3076923,15.1782857 20.3076923,14.9285714 Z" id="Shape"></path>
            </g>
        </g>
    </g>
</svg>